<svg xmlns="http://www.w3.org/2000/svg" xmlns:xlink="http://www.w3.org/1999/xlink" width="500" zoomAndPan="magnify" viewBox="0 0 375 374.999991" height="500" preserveAspectRatio="xMidYMid meet" version="1.0"><defs><g/><clipPath id="30a7d18d90"><path d="M 32 141 L 111 141 L 111 222.660156 L 32 222.660156 Z M 32 141 " clip-rule="nonzero"/></clipPath><clipPath id="fdea140a60"><path d="M 10.5 122.160156 L 97 122.160156 L 97 214 L 10.5 214 Z M 10.5 122.160156 " clip-rule="nonzero"/></clipPath><clipPath id="4357fb66bf"><path d="M 0.078125 0.558594 L 238.160156 0.558594 L 238.160156 138 L 0.078125 138 Z M 0.078125 0.558594 " clip-rule="nonzero"/></clipPath><clipPath id="c7f5db7b93"><rect x="0" width="239" y="0" height="138"/></clipPath><clipPath id="0a6cea1cec"><path d="M 0.078125 132 L 185 132 L 185 154.160156 L 0.078125 154.160156 Z M 0.078125 132 " clip-rule="nonzero"/></clipPath><clipPath id="3f9d189909"><rect x="0" width="185" y="0" height="23"/></clipPath><clipPath id="58d71a6931"><rect x="0" width="239" y="0" height="155"/></clipPath></defs><rect x="-37.5" width="450" fill="#ffffff" y="-37.499999" height="449.999989" fill-opacity="1"/><rect x="-37.5" width="450" fill="#ffffff" y="-37.499999" height="449.999989" fill-opacity="1"/><g clip-path="url(#30a7d18d90)"><path fill="#013064" d="M 99.578125 141.09375 C 106.398438 149.683594 110.476562 160.570312 110.476562 172.414062 C 110.476562 200.164062 88.09375 222.664062 60.488281 222.664062 C 51.578125 222.664062 43.214844 220.316406 35.972656 216.210938 C 36.640625 215.15625 36.851562 213.859375 36.507812 212.570312 C 35.640625 209.285156 34.980469 205.785156 34.417969 202.441406 C 33.207031 195.257812 32.457031 187.773438 32.636719 180.484375 C 32.824219 172.847656 34.164062 162.652344 39.769531 156.957031 C 41.539062 155.15625 43.628906 153.921875 46.03125 153.179688 C 50.121094 151.921875 54.992188 151.628906 57.75 155.523438 C 58.9375 157.199219 59.503906 159.320312 59.558594 161.359375 C 59.628906 163.949219 58.875 166.839844 57.0625 168.757812 C 53.710938 172.304688 48.300781 170.597656 44.574219 168.675781 C 42.800781 167.757812 40.738281 168.058594 39.300781 169.445312 C 37.859375 170.835938 37.46875 172.890625 38.304688 174.714844 C 40.0625 178.554688 43.722656 182.511719 47.074219 184.941406 C 55.820312 191.28125 66.367188 191.597656 76.460938 188.675781 C 93.222656 183.824219 103.585938 163.648438 100.984375 146.839844 C 100.667969 144.808594 100.195312 142.894531 99.578125 141.09375 Z M 99.578125 141.09375 " fill-opacity="1" fill-rule="evenodd"/></g><g clip-path="url(#fdea140a60)"><path fill="#00a7ee" d="M 60.488281 122.164062 C 62.195312 122.164062 63.882812 122.25 65.546875 122.417969 C 111.746094 128.589844 99.445312 177.21875 75.191406 184.238281 C 50.929688 191.257812 42.476562 172.78125 42.476562 172.78125 C 69.675781 186.824219 72.25 140.269531 44.683594 148.765625 C 17.171875 157.246094 32.007812 213.519531 32.066406 213.753906 C 19.039062 204.683594 10.5 189.550781 10.5 172.414062 C 10.5 144.660156 32.878906 122.164062 60.488281 122.164062 Z M 60.488281 122.164062 " fill-opacity="1" fill-rule="evenodd"/></g><g transform="matrix(1, 0, 0, 1, 124, 106)"><g clip-path="url(#58d71a6931)"><g clip-path="url(#4357fb66bf)"><g transform="matrix(1, 0, 0, 1, 0.000000000000014211, 0)"><g clip-path="url(#c7f5db7b93)"><g fill="#3552c8" fill-opacity="1"><g transform="translate(0.24838, 64.266424)"><g><path d="M 21.328125 0.6875 C 18.984375 0.6875 16.664062 0.519531 14.375 0.1875 C 12.09375 -0.144531 9.984375 -0.644531 8.046875 -1.3125 C 6.117188 -1.988281 4.441406 -2.769531 3.015625 -3.65625 L 6.421875 -12.78125 C 7.722656 -11.976562 9.191406 -11.289062 10.828125 -10.71875 C 12.460938 -10.15625 14.179688 -9.71875 15.984375 -9.40625 C 17.785156 -9.09375 19.566406 -8.9375 21.328125 -8.9375 C 24.015625 -8.9375 25.945312 -9.300781 27.125 -10.03125 C 28.300781 -10.769531 28.890625 -11.726562 28.890625 -12.90625 C 28.890625 -13.570312 28.707031 -14.132812 28.34375 -14.59375 C 27.988281 -15.0625 27.410156 -15.460938 26.609375 -15.796875 C 25.816406 -16.128906 24.75 -16.398438 23.40625 -16.609375 L 16.046875 -18.0625 C 11.890625 -18.863281 8.816406 -20.332031 6.828125 -22.46875 C 4.835938 -24.601562 3.84375 -27.375 3.84375 -30.78125 C 3.84375 -33.675781 4.648438 -36.191406 6.265625 -38.328125 C 7.878906 -40.460938 10.125 -42.117188 13 -43.296875 C 15.875 -44.472656 19.195312 -45.0625 22.96875 -45.0625 C 25.070312 -45.0625 27.109375 -44.882812 29.078125 -44.53125 C 31.046875 -44.175781 32.859375 -43.660156 34.515625 -42.984375 C 36.171875 -42.316406 37.585938 -41.519531 38.765625 -40.59375 L 35.375 -31.78125 C 33.738281 -33 31.847656 -33.910156 29.703125 -34.515625 C 27.566406 -35.128906 25.28125 -35.4375 22.84375 -35.4375 C 21.289062 -35.4375 19.957031 -35.253906 18.84375 -34.890625 C 17.738281 -34.535156 16.890625 -34.039062 16.296875 -33.40625 C 15.710938 -32.78125 15.421875 -32.03125 15.421875 -31.15625 C 15.421875 -30.226562 15.804688 -29.457031 16.578125 -28.84375 C 17.359375 -28.238281 18.753906 -27.75 20.765625 -27.375 L 28.0625 -26 C 32.21875 -25.195312 35.320312 -23.773438 37.375 -21.734375 C 39.4375 -19.703125 40.46875 -17.03125 40.46875 -13.71875 C 40.46875 -10.820312 39.679688 -8.289062 38.109375 -6.125 C 36.535156 -3.96875 34.3125 -2.289062 31.4375 -1.09375 C 28.5625 0.09375 25.191406 0.6875 21.328125 0.6875 Z M 21.328125 0.6875 "/></g></g></g><g fill="#3552c8" fill-opacity="1"><g transform="translate(39.651233, 64.266424)"><g><path d="M 20.328125 0.6875 C 15.421875 0.6875 11.8125 -0.453125 9.5 -2.734375 C 7.195312 -5.023438 6.046875 -8.414062 6.046875 -12.90625 L 6.046875 -23.03125 L 0.125 -23.03125 L 0.125 -31.34375 L 6.359375 -31.34375 L 6.359375 -40.09375 L 17.4375 -40.09375 L 17.4375 -31.34375 L 27.0625 -31.34375 L 27.0625 -23.03125 L 17.5 -23.03125 L 17.5 -13.21875 C 17.5 -11.582031 17.894531 -10.363281 18.6875 -9.5625 C 19.488281 -8.769531 20.75 -8.375 22.46875 -8.375 C 23.050781 -8.375 23.675781 -8.4375 24.34375 -8.5625 C 25.019531 -8.6875 25.738281 -8.851562 26.5 -9.0625 L 28 -0.875 C 26.914062 -0.375 25.710938 0.0078125 24.390625 0.28125 C 23.066406 0.550781 21.710938 0.6875 20.328125 0.6875 Z M 20.328125 0.6875 "/></g></g></g><g fill="#3552c8" fill-opacity="1"><g transform="translate(64.954648, 64.266424)"><g><path d="M 15.546875 0.6875 C 12.898438 0.6875 10.6875 0.1875 8.90625 -0.8125 C 7.125 -1.820312 5.78125 -3.34375 4.875 -5.375 C 3.976562 -7.414062 3.53125 -9.96875 3.53125 -13.03125 L 3.53125 -31.34375 L 15.046875 -31.34375 L 15.046875 -13.03125 C 15.046875 -12.019531 15.191406 -11.15625 15.484375 -10.4375 C 15.773438 -9.726562 16.222656 -9.207031 16.828125 -8.875 C 17.441406 -8.539062 18.210938 -8.375 19.140625 -8.375 C 20.179688 -8.375 21.097656 -8.613281 21.890625 -9.09375 C 22.691406 -9.570312 23.320312 -10.273438 23.78125 -11.203125 C 24.25 -12.128906 24.484375 -13.15625 24.484375 -14.28125 L 24.484375 -31.34375 L 36.0625 -31.34375 L 36.0625 0 L 25.171875 0 L 25.171875 -5.859375 L 25.671875 -5.859375 C 24.710938 -3.710938 23.367188 -2.082031 21.640625 -0.96875 C 19.921875 0.132812 17.890625 0.6875 15.546875 0.6875 Z M 15.546875 0.6875 "/></g></g></g><g fill="#3552c8" fill-opacity="1"><g transform="translate(101.462076, 64.266424)"><g><path d="M 16.109375 0.6875 C 13.296875 0.6875 10.835938 0.0195312 8.734375 -1.3125 C 6.640625 -2.65625 5.023438 -4.566406 3.890625 -7.046875 C 2.765625 -9.523438 2.203125 -12.398438 2.203125 -15.671875 C 2.203125 -18.941406 2.765625 -21.800781 3.890625 -24.25 C 5.023438 -26.707031 6.628906 -28.617188 8.703125 -29.984375 C 10.785156 -31.347656 13.210938 -32.03125 15.984375 -32.03125 C 18.335938 -32.03125 20.394531 -31.503906 22.15625 -30.453125 C 23.914062 -29.410156 25.15625 -28.050781 25.875 -26.375 L 25.546875 -26.375 L 25.546875 -44.375 L 37.0625 -44.375 L 37.0625 0 L 26.3125 0 L 26.3125 -5.734375 L 26.5 -5.734375 C 25.738281 -3.710938 24.425781 -2.132812 22.5625 -1 C 20.695312 0.125 18.546875 0.6875 16.109375 0.6875 Z M 19.703125 -7.796875 C 21.546875 -7.796875 23.007812 -8.445312 24.09375 -9.75 C 25.1875 -11.050781 25.734375 -13.023438 25.734375 -15.671875 C 25.734375 -18.359375 25.1875 -20.335938 24.09375 -21.609375 C 23.007812 -22.890625 21.546875 -23.53125 19.703125 -23.53125 C 17.859375 -23.53125 16.390625 -22.890625 15.296875 -21.609375 C 14.203125 -20.335938 13.65625 -18.359375 13.65625 -15.671875 C 13.65625 -13.023438 14.210938 -11.050781 15.328125 -9.75 C 16.441406 -8.445312 17.898438 -7.796875 19.703125 -7.796875 Z M 19.703125 -7.796875 "/></g></g></g><g fill="#3552c8" fill-opacity="1"><g transform="translate(139.039556, 64.266424)"><g><path d="M 21.203125 0.6875 C 17.179688 0.6875 13.742188 0.0195312 10.890625 -1.3125 C 8.035156 -2.65625 5.875 -4.554688 4.40625 -7.015625 C 2.9375 -9.472656 2.203125 -12.359375 2.203125 -15.671875 C 2.203125 -18.859375 2.90625 -21.664062 4.3125 -24.09375 C 5.71875 -26.53125 7.6875 -28.460938 10.21875 -29.890625 C 12.757812 -31.316406 15.707031 -32.03125 19.0625 -32.03125 C 22.175781 -32.03125 24.90625 -31.378906 27.25 -30.078125 C 29.601562 -28.785156 31.445312 -26.921875 32.78125 -24.484375 C 34.125 -22.046875 34.796875 -19.109375 34.796875 -15.671875 L 34.796875 -13.09375 L 11.703125 -13.09375 L 11.703125 -18.6875 L 26.1875 -18.6875 L 25.296875 -17.875 C 25.296875 -20.175781 24.78125 -21.882812 23.75 -23 C 22.726562 -24.113281 21.296875 -24.671875 19.453125 -24.671875 C 18.109375 -24.671875 16.953125 -24.363281 15.984375 -23.75 C 15.015625 -23.144531 14.257812 -22.265625 13.71875 -21.109375 C 13.175781 -19.960938 12.90625 -18.523438 12.90625 -16.796875 L 12.90625 -15.984375 C 12.90625 -13.972656 13.21875 -12.359375 13.84375 -11.140625 C 14.476562 -9.921875 15.429688 -9.023438 16.703125 -8.453125 C 17.984375 -7.890625 19.632812 -7.609375 21.65625 -7.609375 C 23.25 -7.609375 24.914062 -7.835938 26.65625 -8.296875 C 28.394531 -8.765625 29.914062 -9.421875 31.21875 -10.265625 L 34.046875 -2.765625 C 32.328125 -1.679688 30.320312 -0.832031 28.03125 -0.21875 C 25.75 0.382812 23.472656 0.6875 21.203125 0.6875 Z M 21.203125 0.6875 "/></g></g></g><g fill="#3552c8" fill-opacity="1"><g transform="translate(172.651551, 64.266424)"><g><path d="M 3.65625 0 L 3.65625 -31.34375 L 14.53125 -31.34375 L 14.53125 -25.671875 L 14.21875 -25.671875 C 15.269531 -27.691406 16.75 -29.253906 18.65625 -30.359375 C 20.570312 -31.472656 22.722656 -32.03125 25.109375 -32.03125 C 27.628906 -32.03125 29.726562 -31.523438 31.40625 -30.515625 C 33.082031 -29.515625 34.347656 -27.984375 35.203125 -25.921875 C 36.066406 -23.867188 36.5 -21.269531 36.5 -18.125 L 36.5 0 L 24.921875 0 L 24.921875 -17.6875 C 24.921875 -18.945312 24.773438 -19.960938 24.484375 -20.734375 C 24.191406 -21.515625 23.75 -22.082031 23.15625 -22.4375 C 22.570312 -22.789062 21.816406 -22.96875 20.890625 -22.96875 C 19.765625 -22.96875 18.769531 -22.71875 17.90625 -22.21875 C 17.039062 -21.71875 16.367188 -21.015625 15.890625 -20.109375 C 15.410156 -19.203125 15.171875 -18.144531 15.171875 -16.9375 L 15.171875 0 Z M 3.65625 0 "/></g></g></g><g fill="#3552c8" fill-opacity="1"><g transform="translate(209.536661, 64.266424)"><g><path d="M 20.328125 0.6875 C 15.421875 0.6875 11.8125 -0.453125 9.5 -2.734375 C 7.195312 -5.023438 6.046875 -8.414062 6.046875 -12.90625 L 6.046875 -23.03125 L 0.125 -23.03125 L 0.125 -31.34375 L 6.359375 -31.34375 L 6.359375 -40.09375 L 17.4375 -40.09375 L 17.4375 -31.34375 L 27.0625 -31.34375 L 27.0625 -23.03125 L 17.5 -23.03125 L 17.5 -13.21875 C 17.5 -11.582031 17.894531 -10.363281 18.6875 -9.5625 C 19.488281 -8.769531 20.75 -8.375 22.46875 -8.375 C 23.050781 -8.375 23.675781 -8.4375 24.34375 -8.5625 C 25.019531 -8.6875 25.738281 -8.851562 26.5 -9.0625 L 28 -0.875 C 26.914062 -0.375 25.710938 0.0078125 24.390625 0.28125 C 23.066406 0.550781 21.710938 0.6875 20.328125 0.6875 Z M 20.328125 0.6875 "/></g></g></g><g fill="#3552c8" fill-opacity="1"><g transform="translate(0.24838, 114.594441)"><g><path d="M 27 0.6875 C 22.007812 0.6875 17.75 -0.253906 14.21875 -2.140625 C 10.695312 -4.023438 7.988281 -6.664062 6.09375 -10.0625 C 4.207031 -13.46875 3.265625 -17.457031 3.265625 -22.03125 C 3.265625 -26.769531 4.238281 -30.859375 6.1875 -34.296875 C 8.144531 -37.742188 10.925781 -40.398438 14.53125 -42.265625 C 18.144531 -44.128906 22.488281 -45.0625 27.5625 -45.0625 C 29.664062 -45.0625 31.722656 -44.882812 33.734375 -44.53125 C 35.742188 -44.175781 37.597656 -43.660156 39.296875 -42.984375 C 41.003906 -42.316406 42.441406 -41.519531 43.609375 -40.59375 L 40.03125 -31.53125 C 38.050781 -32.789062 36.066406 -33.679688 34.078125 -34.203125 C 32.085938 -34.734375 29.976562 -35 27.75 -35 C 23.769531 -35 20.707031 -33.914062 18.5625 -31.75 C 16.425781 -29.59375 15.359375 -26.351562 15.359375 -22.03125 C 15.359375 -17.789062 16.40625 -14.566406 18.5 -12.359375 C 20.601562 -10.160156 23.707031 -9.0625 27.8125 -9.0625 C 29.320312 -9.0625 30.8125 -9.175781 32.28125 -9.40625 C 33.75 -9.632812 35.195312 -10.003906 36.625 -10.515625 L 34.484375 -6.109375 L 34.484375 -16.9375 L 25.671875 -16.9375 L 25.671875 -25.171875 L 44.125 -25.171875 L 44.125 -2.703125 C 42.570312 -1.992188 40.859375 -1.382812 38.984375 -0.875 C 37.117188 -0.375 35.164062 0.0078125 33.125 0.28125 C 31.09375 0.550781 29.050781 0.6875 27 0.6875 Z M 27 0.6875 "/></g></g></g><g fill="#3552c8" fill-opacity="1"><g transform="translate(45.442066, 114.594441)"><g><path d="M 15.546875 0.6875 C 12.898438 0.6875 10.6875 0.1875 8.90625 -0.8125 C 7.125 -1.820312 5.78125 -3.34375 4.875 -5.375 C 3.976562 -7.414062 3.53125 -9.96875 3.53125 -13.03125 L 3.53125 -31.34375 L 15.046875 -31.34375 L 15.046875 -13.03125 C 15.046875 -12.019531 15.191406 -11.15625 15.484375 -10.4375 C 15.773438 -9.726562 16.222656 -9.207031 16.828125 -8.875 C 17.441406 -8.539062 18.210938 -8.375 19.140625 -8.375 C 20.179688 -8.375 21.097656 -8.613281 21.890625 -9.09375 C 22.691406 -9.570312 23.320312 -10.273438 23.78125 -11.203125 C 24.25 -12.128906 24.484375 -13.15625 24.484375 -14.28125 L 24.484375 -31.34375 L 36.0625 -31.34375 L 36.0625 0 L 25.171875 0 L 25.171875 -5.859375 L 25.671875 -5.859375 C 24.710938 -3.710938 23.367188 -2.082031 21.640625 -0.96875 C 19.921875 0.132812 17.890625 0.6875 15.546875 0.6875 Z M 15.546875 0.6875 "/></g></g></g><g fill="#3552c8" fill-opacity="1"><g transform="translate(81.949495, 114.594441)"><g><path d="M 3.40625 -36.625 L 3.40625 -46.828125 L 15.359375 -46.828125 L 15.359375 -36.625 Z M 3.65625 0 L 3.65625 -31.34375 L 15.171875 -31.34375 L 15.171875 0 Z M 3.65625 0 "/></g></g></g><g fill="#3552c8" fill-opacity="1"><g transform="translate(97.622512, 114.594441)"><g><path d="M 16.109375 0.6875 C 13.296875 0.6875 10.835938 0.0195312 8.734375 -1.3125 C 6.640625 -2.65625 5.023438 -4.566406 3.890625 -7.046875 C 2.765625 -9.523438 2.203125 -12.398438 2.203125 -15.671875 C 2.203125 -18.941406 2.765625 -21.800781 3.890625 -24.25 C 5.023438 -26.707031 6.628906 -28.617188 8.703125 -29.984375 C 10.785156 -31.347656 13.210938 -32.03125 15.984375 -32.03125 C 18.335938 -32.03125 20.394531 -31.503906 22.15625 -30.453125 C 23.914062 -29.410156 25.15625 -28.050781 25.875 -26.375 L 25.546875 -26.375 L 25.546875 -44.375 L 37.0625 -44.375 L 37.0625 0 L 26.3125 0 L 26.3125 -5.734375 L 26.5 -5.734375 C 25.738281 -3.710938 24.425781 -2.132812 22.5625 -1 C 20.695312 0.125 18.546875 0.6875 16.109375 0.6875 Z M 19.703125 -7.796875 C 21.546875 -7.796875 23.007812 -8.445312 24.09375 -9.75 C 25.1875 -11.050781 25.734375 -13.023438 25.734375 -15.671875 C 25.734375 -18.359375 25.1875 -20.335938 24.09375 -21.609375 C 23.007812 -22.890625 21.546875 -23.53125 19.703125 -23.53125 C 17.859375 -23.53125 16.390625 -22.890625 15.296875 -21.609375 C 14.203125 -20.335938 13.65625 -18.359375 13.65625 -15.671875 C 13.65625 -13.023438 14.210938 -11.050781 15.328125 -9.75 C 16.441406 -8.445312 17.898438 -7.796875 19.703125 -7.796875 Z M 19.703125 -7.796875 "/></g></g></g><g fill="#3552c8" fill-opacity="1"><g transform="translate(135.199992, 114.594441)"><g><path d="M 21.203125 0.6875 C 17.179688 0.6875 13.742188 0.0195312 10.890625 -1.3125 C 8.035156 -2.65625 5.875 -4.554688 4.40625 -7.015625 C 2.9375 -9.472656 2.203125 -12.359375 2.203125 -15.671875 C 2.203125 -18.859375 2.90625 -21.664062 4.3125 -24.09375 C 5.71875 -26.53125 7.6875 -28.460938 10.21875 -29.890625 C 12.757812 -31.316406 15.707031 -32.03125 19.0625 -32.03125 C 22.175781 -32.03125 24.90625 -31.378906 27.25 -30.078125 C 29.601562 -28.785156 31.445312 -26.921875 32.78125 -24.484375 C 34.125 -22.046875 34.796875 -19.109375 34.796875 -15.671875 L 34.796875 -13.09375 L 11.703125 -13.09375 L 11.703125 -18.6875 L 26.1875 -18.6875 L 25.296875 -17.875 C 25.296875 -20.175781 24.78125 -21.882812 23.75 -23 C 22.726562 -24.113281 21.296875 -24.671875 19.453125 -24.671875 C 18.109375 -24.671875 16.953125 -24.363281 15.984375 -23.75 C 15.015625 -23.144531 14.257812 -22.265625 13.71875 -21.109375 C 13.175781 -19.960938 12.90625 -18.523438 12.90625 -16.796875 L 12.90625 -15.984375 C 12.90625 -13.972656 13.21875 -12.359375 13.84375 -11.140625 C 14.476562 -9.921875 15.429688 -9.023438 16.703125 -8.453125 C 17.984375 -7.890625 19.632812 -7.609375 21.65625 -7.609375 C 23.25 -7.609375 24.914062 -7.835938 26.65625 -8.296875 C 28.394531 -8.765625 29.914062 -9.421875 31.21875 -10.265625 L 34.046875 -2.765625 C 32.328125 -1.679688 30.320312 -0.832031 28.03125 -0.21875 C 25.75 0.382812 23.472656 0.6875 21.203125 0.6875 Z M 21.203125 0.6875 "/></g></g></g></g></g></g><g clip-path="url(#0a6cea1cec)"><g transform="matrix(1, 0, 0, 1, 0.000000000000014211, 132)"><g clip-path="url(#3f9d189909)"><g fill="#3552c8" fill-opacity="1"><g transform="translate(0.24838, 16.362965)"><g><path d="M 6.46875 0.15625 C 5.332031 0.15625 4.351562 -0.0703125 3.53125 -0.53125 C 2.707031 -1 2.070312 -1.660156 1.625 -2.515625 C 1.175781 -3.367188 0.953125 -4.378906 0.953125 -5.546875 C 0.953125 -6.722656 1.175781 -7.734375 1.625 -8.578125 C 2.070312 -9.429688 2.703125 -10.085938 3.515625 -10.546875 C 4.335938 -11.015625 5.320312 -11.25 6.46875 -11.25 C 7.21875 -11.25 7.921875 -11.140625 8.578125 -10.921875 C 9.234375 -10.703125 9.785156 -10.375 10.234375 -9.9375 L 9.53125 -8.3125 C 9.0625 -8.707031 8.582031 -8.988281 8.09375 -9.15625 C 7.613281 -9.332031 7.09375 -9.421875 6.53125 -9.421875 C 5.445312 -9.421875 4.609375 -9.085938 4.015625 -8.421875 C 3.421875 -7.753906 3.125 -6.796875 3.125 -5.546875 C 3.125 -4.304688 3.414062 -3.347656 4 -2.671875 C 4.59375 -2.003906 5.4375 -1.671875 6.53125 -1.671875 C 7.09375 -1.671875 7.613281 -1.753906 8.09375 -1.921875 C 8.582031 -2.097656 9.0625 -2.382812 9.53125 -2.78125 L 10.234375 -1.15625 C 9.785156 -0.726562 9.234375 -0.398438 8.578125 -0.171875 C 7.921875 0.046875 7.21875 0.15625 6.46875 0.15625 Z M 6.46875 0.15625 "/></g></g></g><g fill="#3552c8" fill-opacity="1"><g transform="translate(12.756951, 16.362965)"><g><path d="M 0.125 0 L 5.125 -11.09375 L 6.890625 -11.09375 L 11.890625 0 L 9.765625 0 L 8.4375 -3.109375 L 9.3125 -2.46875 L 2.671875 -2.46875 L 3.5625 -3.109375 L 2.234375 0 Z M 5.984375 -8.875 L 3.78125 -3.671875 L 3.359375 -4.15625 L 8.625 -4.15625 L 8.234375 -3.671875 L 6.03125 -8.875 Z M 5.984375 -8.875 "/></g></g></g><g fill="#3552c8" fill-opacity="1"><g transform="translate(26.335418, 16.362965)"><g><path d="M 1.34375 0 L 1.34375 -11.09375 L 6.234375 -11.09375 C 7.472656 -11.09375 8.421875 -10.800781 9.078125 -10.21875 C 9.742188 -9.644531 10.078125 -8.828125 10.078125 -7.765625 C 10.078125 -7.128906 9.941406 -6.578125 9.671875 -6.109375 C 9.398438 -5.648438 9.015625 -5.289062 8.515625 -5.03125 C 8.023438 -4.78125 7.4375 -4.632812 6.75 -4.59375 L 6.84375 -4.71875 L 7.21875 -4.703125 C 7.5625 -4.679688 7.867188 -4.570312 8.140625 -4.375 C 8.410156 -4.1875 8.65625 -3.882812 8.875 -3.46875 L 10.75 0 L 8.46875 0 L 6.609375 -3.46875 C 6.484375 -3.707031 6.34375 -3.890625 6.1875 -4.015625 C 6.03125 -4.148438 5.847656 -4.242188 5.640625 -4.296875 C 5.441406 -4.347656 5.210938 -4.375 4.953125 -4.375 L 3.421875 -4.375 L 3.421875 0 Z M 3.421875 -5.953125 L 5.9375 -5.953125 C 6.644531 -5.953125 7.175781 -6.097656 7.53125 -6.390625 C 7.882812 -6.679688 8.0625 -7.117188 8.0625 -7.703125 C 8.0625 -8.285156 7.878906 -8.71875 7.515625 -9 C 7.160156 -9.28125 6.628906 -9.421875 5.921875 -9.421875 L 3.421875 -9.421875 Z M 3.421875 -5.953125 "/></g></g></g><g fill="#3552c8" fill-opacity="1"><g transform="translate(39.064262, 16.362965)"><g><path d="M 1.34375 0 L 1.34375 -11.09375 L 6.234375 -11.09375 C 7.472656 -11.09375 8.421875 -10.800781 9.078125 -10.21875 C 9.742188 -9.644531 10.078125 -8.828125 10.078125 -7.765625 C 10.078125 -7.128906 9.941406 -6.578125 9.671875 -6.109375 C 9.398438 -5.648438 9.015625 -5.289062 8.515625 -5.03125 C 8.023438 -4.78125 7.4375 -4.632812 6.75 -4.59375 L 6.84375 -4.71875 L 7.21875 -4.703125 C 7.5625 -4.679688 7.867188 -4.570312 8.140625 -4.375 C 8.410156 -4.1875 8.65625 -3.882812 8.875 -3.46875 L 10.75 0 L 8.46875 0 L 6.609375 -3.46875 C 6.484375 -3.707031 6.34375 -3.890625 6.1875 -4.015625 C 6.03125 -4.148438 5.847656 -4.242188 5.640625 -4.296875 C 5.441406 -4.347656 5.210938 -4.375 4.953125 -4.375 L 3.421875 -4.375 L 3.421875 0 Z M 3.421875 -5.953125 L 5.9375 -5.953125 C 6.644531 -5.953125 7.175781 -6.097656 7.53125 -6.390625 C 7.882812 -6.679688 8.0625 -7.117188 8.0625 -7.703125 C 8.0625 -8.285156 7.878906 -8.71875 7.515625 -9 C 7.160156 -9.28125 6.628906 -9.421875 5.921875 -9.421875 L 3.421875 -9.421875 Z M 3.421875 -5.953125 "/></g></g></g><g fill="#3552c8" fill-opacity="1"><g transform="translate(51.793102, 16.362965)"><g><path d="M 1.34375 0 L 1.34375 -11.09375 L 3.421875 -11.09375 L 3.421875 0 Z M 1.34375 0 "/></g></g></g><g fill="#3552c8" fill-opacity="1"><g transform="translate(58.102571, 16.362965)"><g><path d="M 1.34375 0 L 1.34375 -11.09375 L 8.84375 -11.09375 L 8.84375 -9.40625 L 3.34375 -9.40625 L 3.34375 -6.46875 L 8.5 -6.46875 L 8.5 -4.78125 L 3.34375 -4.78125 L 3.34375 -1.6875 L 8.84375 -1.6875 L 8.84375 0 Z M 1.34375 0 "/></g></g></g><g fill="#3552c8" fill-opacity="1"><g transform="translate(69.478311, 16.362965)"><g><path d="M 1.34375 0 L 1.34375 -11.09375 L 6.234375 -11.09375 C 7.472656 -11.09375 8.421875 -10.800781 9.078125 -10.21875 C 9.742188 -9.644531 10.078125 -8.828125 10.078125 -7.765625 C 10.078125 -7.128906 9.941406 -6.578125 9.671875 -6.109375 C 9.398438 -5.648438 9.015625 -5.289062 8.515625 -5.03125 C 8.023438 -4.78125 7.4375 -4.632812 6.75 -4.59375 L 6.84375 -4.71875 L 7.21875 -4.703125 C 7.5625 -4.679688 7.867188 -4.570312 8.140625 -4.375 C 8.410156 -4.1875 8.65625 -3.882812 8.875 -3.46875 L 10.75 0 L 8.46875 0 L 6.609375 -3.46875 C 6.484375 -3.707031 6.34375 -3.890625 6.1875 -4.015625 C 6.03125 -4.148438 5.847656 -4.242188 5.640625 -4.296875 C 5.441406 -4.347656 5.210938 -4.375 4.953125 -4.375 L 3.421875 -4.375 L 3.421875 0 Z M 3.421875 -5.953125 L 5.9375 -5.953125 C 6.644531 -5.953125 7.175781 -6.097656 7.53125 -6.390625 C 7.882812 -6.679688 8.0625 -7.117188 8.0625 -7.703125 C 8.0625 -8.285156 7.878906 -8.71875 7.515625 -9 C 7.160156 -9.28125 6.628906 -9.421875 5.921875 -9.421875 L 3.421875 -9.421875 Z M 3.421875 -5.953125 "/></g></g></g><g fill="#3552c8" fill-opacity="1"><g transform="translate(82.207157, 16.362965)"><g/></g></g><g fill="#3552c8" fill-opacity="1"><g transform="translate(88.217676, 16.362965)"><g><path d="M 6.640625 0.15625 C 5.429688 0.15625 4.40625 -0.0703125 3.5625 -0.53125 C 2.71875 -1 2.070312 -1.65625 1.625 -2.5 C 1.175781 -3.351562 0.953125 -4.363281 0.953125 -5.53125 C 0.953125 -6.707031 1.175781 -7.722656 1.625 -8.578125 C 2.082031 -9.429688 2.734375 -10.085938 3.578125 -10.546875 C 4.421875 -11.015625 5.429688 -11.25 6.609375 -11.25 C 7.140625 -11.25 7.648438 -11.195312 8.140625 -11.09375 C 8.640625 -11 9.097656 -10.859375 9.515625 -10.671875 C 9.929688 -10.492188 10.285156 -10.265625 10.578125 -9.984375 L 9.890625 -8.390625 C 9.390625 -8.765625 8.875 -9.03125 8.34375 -9.1875 C 7.820312 -9.351562 7.25 -9.4375 6.625 -9.4375 C 5.488281 -9.4375 4.613281 -9.101562 4 -8.4375 C 3.394531 -7.769531 3.09375 -6.800781 3.09375 -5.53125 C 3.09375 -4.238281 3.398438 -3.265625 4.015625 -2.609375 C 4.640625 -1.953125 5.554688 -1.625 6.765625 -1.625 C 7.234375 -1.625 7.6875 -1.660156 8.125 -1.734375 C 8.5625 -1.816406 8.976562 -1.929688 9.375 -2.078125 L 8.921875 -1.15625 L 8.921875 -4.5 L 6.40625 -4.5 L 6.40625 -6.109375 L 10.6875 -6.109375 L 10.6875 -0.65625 C 10.351562 -0.488281 9.960938 -0.34375 9.515625 -0.21875 C 9.066406 -0.101562 8.597656 -0.015625 8.109375 0.046875 C 7.617188 0.117188 7.128906 0.15625 6.640625 0.15625 Z M 6.640625 0.15625 "/></g></g></g><g fill="#3552c8" fill-opacity="1"><g transform="translate(101.701741, 16.362965)"><g><path d="M 5.9375 0.15625 C 4.414062 0.15625 3.25 -0.234375 2.4375 -1.015625 C 1.632812 -1.796875 1.234375 -2.953125 1.234375 -4.484375 L 1.234375 -11.09375 L 3.296875 -11.09375 L 3.296875 -4.53125 C 3.296875 -3.5625 3.519531 -2.84375 3.96875 -2.375 C 4.425781 -1.90625 5.082031 -1.671875 5.9375 -1.671875 C 6.789062 -1.671875 7.441406 -1.90625 7.890625 -2.375 C 8.335938 -2.84375 8.5625 -3.5625 8.5625 -4.53125 L 8.5625 -11.09375 L 10.625 -11.09375 L 10.625 -4.484375 C 10.625 -2.960938 10.222656 -1.804688 9.421875 -1.015625 C 8.628906 -0.234375 7.46875 0.15625 5.9375 0.15625 Z M 5.9375 0.15625 "/></g></g></g><g fill="#3552c8" fill-opacity="1"><g transform="translate(115.122871, 16.362965)"><g><path d="M 1.34375 0 L 1.34375 -11.09375 L 3.421875 -11.09375 L 3.421875 0 Z M 1.34375 0 "/></g></g></g><g fill="#3552c8" fill-opacity="1"><g transform="translate(121.43234, 16.362965)"><g><path d="M 1.34375 0 L 1.34375 -11.09375 L 5.546875 -11.09375 C 6.773438 -11.09375 7.816406 -10.875 8.671875 -10.4375 C 9.535156 -10.007812 10.191406 -9.382812 10.640625 -8.5625 C 11.097656 -7.738281 11.328125 -6.734375 11.328125 -5.546875 C 11.328125 -4.367188 11.097656 -3.363281 10.640625 -2.53125 C 10.191406 -1.707031 9.535156 -1.078125 8.671875 -0.640625 C 7.816406 -0.210938 6.773438 0 5.546875 0 Z M 3.421875 -1.734375 L 5.421875 -1.734375 C 6.660156 -1.734375 7.59375 -2.050781 8.21875 -2.6875 C 8.851562 -3.320312 9.171875 -4.273438 9.171875 -5.546875 C 9.171875 -6.828125 8.851562 -7.78125 8.21875 -8.40625 C 7.59375 -9.039062 6.660156 -9.359375 5.421875 -9.359375 L 3.421875 -9.359375 Z M 3.421875 -1.734375 "/></g></g></g><g fill="#3552c8" fill-opacity="1"><g transform="translate(135.278272, 16.362965)"><g><path d="M 1.34375 0 L 1.34375 -11.09375 L 8.84375 -11.09375 L 8.84375 -9.40625 L 3.34375 -9.40625 L 3.34375 -6.46875 L 8.5 -6.46875 L 8.5 -4.78125 L 3.34375 -4.78125 L 3.34375 -1.6875 L 8.84375 -1.6875 L 8.84375 0 Z M 1.34375 0 "/></g></g></g><g fill="#3552c8" fill-opacity="1"><g transform="translate(146.654018, 16.362965)"><g><path d="M 1.34375 0 L 1.34375 -11.09375 L 2.984375 -11.09375 L 9.1875 -2.96875 L 8.9375 -2.96875 L 8.9375 -11.09375 L 10.90625 -11.09375 L 10.90625 0 L 9.203125 0 L 3.0625 -8.09375 L 3.28125 -8.09375 L 3.28125 0 Z M 1.34375 0 "/></g></g></g><g fill="#3552c8" fill-opacity="1"><g transform="translate(160.468488, 16.362965)"><g><path d="M 6.46875 0.15625 C 5.332031 0.15625 4.351562 -0.0703125 3.53125 -0.53125 C 2.707031 -1 2.070312 -1.660156 1.625 -2.515625 C 1.175781 -3.367188 0.953125 -4.378906 0.953125 -5.546875 C 0.953125 -6.722656 1.175781 -7.734375 1.625 -8.578125 C 2.070312 -9.429688 2.703125 -10.085938 3.515625 -10.546875 C 4.335938 -11.015625 5.320312 -11.25 6.46875 -11.25 C 7.21875 -11.25 7.921875 -11.140625 8.578125 -10.921875 C 9.234375 -10.703125 9.785156 -10.375 10.234375 -9.9375 L 9.53125 -8.3125 C 9.0625 -8.707031 8.582031 -8.988281 8.09375 -9.15625 C 7.613281 -9.332031 7.09375 -9.421875 6.53125 -9.421875 C 5.445312 -9.421875 4.609375 -9.085938 4.015625 -8.421875 C 3.421875 -7.753906 3.125 -6.796875 3.125 -5.546875 C 3.125 -4.304688 3.414062 -3.347656 4 -2.671875 C 4.59375 -2.003906 5.4375 -1.671875 6.53125 -1.671875 C 7.09375 -1.671875 7.613281 -1.753906 8.09375 -1.921875 C 8.582031 -2.097656 9.0625 -2.382812 9.53125 -2.78125 L 10.234375 -1.15625 C 9.785156 -0.726562 9.234375 -0.398438 8.578125 -0.171875 C 7.921875 0.046875 7.21875 0.15625 6.46875 0.15625 Z M 6.46875 0.15625 "/></g></g></g><g fill="#3552c8" fill-opacity="1"><g transform="translate(172.977062, 16.362965)"><g><path d="M 1.34375 0 L 1.34375 -11.09375 L 8.84375 -11.09375 L 8.84375 -9.40625 L 3.34375 -9.40625 L 3.34375 -6.46875 L 8.5 -6.46875 L 8.5 -4.78125 L 3.34375 -4.78125 L 3.34375 -1.6875 L 8.84375 -1.6875 L 8.84375 0 Z M 1.34375 0 "/></g></g></g></g></g></g></g></g></svg>